<svg xmlns="http://www.w3.org/2000/svg" viewBox="0 0 330 72" width="660" height="144" role="img" aria-label="Bekzhan Logistic, operelle">
  <g transform="translate(4 8) scale(1.55)">
    <rect x="1.5" y="4.5" width="46.5" height="19.5" rx="2.2" fill="#F2F5FA" stroke="#C9D2E0" stroke-width=".6"/>
    <rect x="1.5" y="18.8" width="46.5" height="2.2" fill="#D2A84C"/>
    <rect x="1.5" y="24" width="64" height="2.4" rx="1" fill="#55627A"/>
    <path d="M50.5 8.5h8.6c1 0 1.9.5 2.4 1.4l3.3 5.8c.4.7.6 1.5.6 2.3v6.5H50.5z" fill="#1E66F5"/>
    <path d="M56 11h3c.4 0 .8.2 1 .6l2.3 4.1c.3.6-.1 1.3-.8 1.3H56z" fill="#D6E6FF"/>
    <rect x="50.5" y="20" width="14.9" height="1.5" fill="#174EC2"/>
    <g fill="#0B1220" stroke="#CBD5E1" stroke-width="1.4"><circle cx="8" cy="27.6" r="3.7"/><circle cx="15.5" cy="27.6" r="3.7"/><circle cx="23" cy="27.6" r="3.7"/><circle cx="45" cy="27.6" r="3.7"/><circle cx="59.5" cy="27.6" r="3.7"/></g>
    <g fill="#CBD5E1"><circle cx="8" cy="27.6" r="1.2"/><circle cx="15.5" cy="27.6" r="1.2"/><circle cx="23" cy="27.6" r="1.2"/><circle cx="45" cy="27.6" r="1.2"/><circle cx="59.5" cy="27.6" r="1.2"/></g>
  </g>
  <text x="122" y="36" font-family="Inter, Arial, Helvetica, sans-serif" font-weight="800" font-size="21" letter-spacing="2" fill="#111827">BEKZHAN LOGISTIC</text>
  <text x="123" y="54" font-family="Inter, Arial, Helvetica, sans-serif" font-weight="600" font-size="11" letter-spacing="5" fill="#6B7280">operelle</text>
</svg>
